<svg width="339" height="203" viewBox="0 0 339 203" fill="none" xmlns="http://www.w3.org/2000/svg">
<g filter="url(#filter0_d_106_46)">
<path d="M4 31C4 13.8792 17.8792 0 35 0H304C321.121 0 335 13.8792 335 31V122.081C335 139.202 321.121 153.081 304 153.081H213.796H146.783C139.746 153.081 132.891 155.491 127.412 159.906C93.8034 186.983 76.3836 202.008 81.8802 190.272C89.808 173.346 80.5861 153.081 61.8956 153.081H35C17.8792 153.081 4 139.202 4 122.081V64.7502V31Z" fill="#E2E4F2"/>
</g>
<path d="M36.1358 52.74L37.0038 65.312H31.7958L32.6638 52.74H36.1358ZM34.3998 45.712C35.2025 45.712 35.8465 45.964 36.3318 46.468C36.8358 46.972 37.0878 47.5787 37.0878 48.288C37.0878 48.9787 36.8358 49.5667 36.3318 50.052C35.8465 50.5373 35.2025 50.78 34.3998 50.78C33.6158 50.78 32.9718 50.5373 32.4678 50.052C31.9638 49.5667 31.7118 48.9787 31.7118 48.288C31.7118 47.5787 31.9638 46.972 32.4678 46.468C32.9718 45.964 33.6158 45.712 34.3998 45.712ZM40.7576 61V41.4H50.3336C52.7976 41.4 54.6456 41.8667 55.8776 42.8C57.1283 43.7333 57.7536 44.9653 57.7536 46.496C57.7536 47.5227 57.5016 48.4187 56.9976 49.184C56.4936 49.9307 55.8029 50.5093 54.9256 50.92C54.0483 51.3307 53.0403 51.536 51.9016 51.536L52.4336 50.388C53.6656 50.388 54.7576 50.5933 55.7096 51.004C56.6616 51.396 57.3989 51.984 57.9216 52.768C58.4629 53.552 58.7336 54.5133 58.7336 55.652C58.7336 57.332 58.0709 58.648 56.7456 59.6C55.4203 60.5333 53.4696 61 50.8936 61H40.7576ZM45.2656 57.584H50.5576C51.7336 57.584 52.6203 57.3973 53.2176 57.024C53.8336 56.632 54.1416 56.016 54.1416 55.176C54.1416 54.3547 53.8336 53.748 53.2176 53.356C52.6203 52.9453 51.7336 52.74 50.5576 52.74H44.9296V49.436H49.7736C50.8749 49.436 51.7149 49.2493 52.2936 48.876C52.8909 48.484 53.1896 47.896 53.1896 47.112C53.1896 46.3467 52.8909 45.7773 52.2936 45.404C51.7149 45.012 50.8749 44.816 49.7736 44.816H45.2656V57.584ZM61.8598 61V45.936H66.2278V61H61.8598ZM64.0438 43.836C63.2411 43.836 62.5878 43.6027 62.0838 43.136C61.5798 42.6693 61.3278 42.0907 61.3278 41.4C61.3278 40.7093 61.5798 40.1307 62.0838 39.664C62.5878 39.1973 63.2411 38.964 64.0438 38.964C64.8464 38.964 65.4998 39.188 66.0038 39.636C66.5078 40.0653 66.7598 40.6253 66.7598 41.316C66.7598 42.044 66.5078 42.6507 66.0038 43.136C65.5184 43.6027 64.8651 43.836 64.0438 43.836ZM77.7576 61.224C76.0403 61.224 74.5283 60.888 73.2216 60.216C71.9336 59.544 70.935 58.6293 70.2256 57.472C69.5163 56.296 69.1616 54.9613 69.1616 53.468C69.1616 51.956 69.507 50.6213 70.1976 49.464C70.907 48.288 71.8683 47.3733 73.0816 46.72C74.295 46.048 75.667 45.712 77.1976 45.712C78.6723 45.712 79.9976 46.0293 81.1736 46.664C82.3683 47.28 83.311 48.176 84.0016 49.352C84.6923 50.5093 85.0376 51.9 85.0376 53.524C85.0376 53.692 85.0283 53.888 85.0096 54.112C84.991 54.3173 84.9723 54.5133 84.9536 54.7H72.7176V52.152H82.6576L80.9776 52.908C80.9776 52.124 80.819 51.4427 80.5016 50.864C80.1843 50.2853 79.7456 49.8373 79.1856 49.52C78.6256 49.184 77.9723 49.016 77.2256 49.016C76.479 49.016 75.8163 49.184 75.2376 49.52C74.6776 49.8373 74.239 50.2947 73.9216 50.892C73.6043 51.4707 73.4456 52.1613 73.4456 52.964V53.636C73.4456 54.4573 73.623 55.1853 73.9776 55.82C74.351 56.436 74.8643 56.912 75.5176 57.248C76.1896 57.5653 76.9736 57.724 77.8696 57.724C78.6723 57.724 79.3723 57.6027 79.9696 57.36C80.5856 57.1173 81.1456 56.7533 81.6496 56.268L83.9736 58.788C83.283 59.572 82.415 60.1787 81.3696 60.608C80.3243 61.0187 79.1203 61.224 77.7576 61.224ZM97.1017 45.712C98.2964 45.712 99.3604 45.9547 100.294 46.44C101.246 46.9067 101.992 47.6347 102.534 48.624C103.075 49.5947 103.346 50.8453 103.346 52.376V61H98.9777V53.048C98.9777 51.8347 98.707 50.9387 98.1657 50.36C97.643 49.7813 96.8964 49.492 95.9257 49.492C95.235 49.492 94.6097 49.6413 94.0497 49.94C93.5084 50.22 93.079 50.6587 92.7617 51.256C92.463 51.8533 92.3137 52.6187 92.3137 53.552V61H87.9457V45.936H92.1177V50.108L91.3337 48.848C91.875 47.84 92.6497 47.0653 93.6577 46.524C94.6657 45.9827 95.8137 45.712 97.1017 45.712ZM111.12 61L104.792 45.936H109.3L114.564 58.9H112.324L117.784 45.936H121.984L115.628 61H111.12ZM130.832 61.224C129.115 61.224 127.603 60.888 126.296 60.216C125.008 59.544 124.009 58.6293 123.3 57.472C122.591 56.296 122.236 54.9613 122.236 53.468C122.236 51.956 122.581 50.6213 123.272 49.464C123.981 48.288 124.943 47.3733 126.156 46.72C127.369 46.048 128.741 45.712 130.272 45.712C131.747 45.712 133.072 46.0293 134.248 46.664C135.443 47.28 136.385 48.176 137.076 49.352C137.767 50.5093 138.112 51.9 138.112 53.524C138.112 53.692 138.103 53.888 138.084 54.112C138.065 54.3173 138.047 54.5133 138.028 54.7H125.792V52.152H135.732L134.052 52.908C134.052 52.124 133.893 51.4427 133.576 50.864C133.259 50.2853 132.82 49.8373 132.26 49.52C131.7 49.184 131.047 49.016 130.3 49.016C129.553 49.016 128.891 49.184 128.312 49.52C127.752 49.8373 127.313 50.2947 126.996 50.892C126.679 51.4707 126.52 52.1613 126.52 52.964V53.636C126.52 54.4573 126.697 55.1853 127.052 55.82C127.425 56.436 127.939 56.912 128.592 57.248C129.264 57.5653 130.048 57.724 130.944 57.724C131.747 57.724 132.447 57.6027 133.044 57.36C133.66 57.1173 134.22 56.7533 134.724 56.268L137.048 58.788C136.357 59.572 135.489 60.1787 134.444 60.608C133.399 61.0187 132.195 61.224 130.832 61.224ZM150.176 45.712C151.371 45.712 152.435 45.9547 153.368 46.44C154.32 46.9067 155.067 47.6347 155.608 48.624C156.149 49.5947 156.42 50.8453 156.42 52.376V61H152.052V53.048C152.052 51.8347 151.781 50.9387 151.24 50.36C150.717 49.7813 149.971 49.492 149 49.492C148.309 49.492 147.684 49.6413 147.124 49.94C146.583 50.22 146.153 50.6587 145.836 51.256C145.537 51.8533 145.388 52.6187 145.388 53.552V61H141.02V45.936H145.192V50.108L144.408 48.848C144.949 47.84 145.724 47.0653 146.732 46.524C147.74 45.9827 148.888 45.712 150.176 45.712ZM160.379 61V45.936H164.747V61H160.379ZM162.563 43.836C161.761 43.836 161.107 43.6027 160.603 43.136C160.099 42.6693 159.847 42.0907 159.847 41.4C159.847 40.7093 160.099 40.1307 160.603 39.664C161.107 39.1973 161.761 38.964 162.563 38.964C163.366 38.964 164.019 39.188 164.523 39.636C165.027 40.0653 165.279 40.6253 165.279 41.316C165.279 42.044 165.027 42.6507 164.523 43.136C164.038 43.6027 163.385 43.836 162.563 43.836ZM175.269 61.224C173.85 61.224 172.572 60.9067 171.433 60.272C170.294 59.6187 169.389 58.7133 168.717 57.556C168.064 56.3987 167.737 55.036 167.737 53.468C167.737 51.8813 168.064 50.5093 168.717 49.352C169.389 48.1947 170.294 47.2987 171.433 46.664C172.572 46.0293 173.85 45.712 175.269 45.712C176.538 45.712 177.649 45.992 178.601 46.552C179.553 47.112 180.29 47.9613 180.813 49.1C181.336 50.2387 181.597 51.6947 181.597 53.468C181.597 55.2227 181.345 56.6787 180.841 57.836C180.337 58.9747 179.609 59.824 178.657 60.384C177.724 60.944 176.594 61.224 175.269 61.224ZM176.025 57.64C176.734 57.64 177.378 57.472 177.957 57.136C178.536 56.8 178.993 56.324 179.329 55.708C179.684 55.0733 179.861 54.3267 179.861 53.468C179.861 52.5907 179.684 51.844 179.329 51.228C178.993 50.612 178.536 50.136 177.957 49.8C177.378 49.464 176.734 49.296 176.025 49.296C175.297 49.296 174.644 49.464 174.065 49.8C173.486 50.136 173.02 50.612 172.665 51.228C172.329 51.844 172.161 52.5907 172.161 53.468C172.161 54.3267 172.329 55.0733 172.665 55.708C173.02 56.324 173.486 56.8 174.065 57.136C174.644 57.472 175.297 57.64 176.025 57.64ZM179.973 61V57.92L180.057 53.44L179.777 48.988V40.224H184.145V61H179.973ZM195.356 61.224C193.751 61.224 192.323 60.888 191.072 60.216C189.84 59.544 188.86 58.6293 188.132 57.472C187.423 56.296 187.068 54.9613 187.068 53.468C187.068 51.956 187.423 50.6213 188.132 49.464C188.86 48.288 189.84 47.3733 191.072 46.72C192.323 46.048 193.751 45.712 195.356 45.712C196.943 45.712 198.361 46.048 199.612 46.72C200.863 47.3733 201.843 48.2787 202.552 49.436C203.261 50.5933 203.616 51.9373 203.616 53.468C203.616 54.9613 203.261 56.296 202.552 57.472C201.843 58.6293 200.863 59.544 199.612 60.216C198.361 60.888 196.943 61.224 195.356 61.224ZM195.356 57.64C196.084 57.64 196.737 57.472 197.316 57.136C197.895 56.8 198.352 56.324 198.688 55.708C199.024 55.0733 199.192 54.3267 199.192 53.468C199.192 52.5907 199.024 51.844 198.688 51.228C198.352 50.612 197.895 50.136 197.316 49.8C196.737 49.464 196.084 49.296 195.356 49.296C194.628 49.296 193.975 49.464 193.396 49.8C192.817 50.136 192.351 50.612 191.996 51.228C191.66 51.844 191.492 52.5907 191.492 53.468C191.492 54.3267 191.66 55.0733 191.996 55.708C192.351 56.324 192.817 56.8 193.396 57.136C193.975 57.472 194.628 57.64 195.356 57.64ZM223.705 61V58.06L223.425 57.416V52.152C223.425 51.2187 223.136 50.4907 222.557 49.968C221.997 49.4453 221.129 49.184 219.953 49.184C219.151 49.184 218.357 49.3147 217.573 49.576C216.808 49.8187 216.155 50.1547 215.613 50.584L214.045 47.532C214.867 46.9533 215.856 46.5053 217.013 46.188C218.171 45.8707 219.347 45.712 220.541 45.712C222.837 45.712 224.62 46.2533 225.889 47.336C227.159 48.4187 227.793 50.108 227.793 52.404V61H223.705ZM219.113 61.224C217.937 61.224 216.929 61.028 216.089 60.636C215.249 60.2253 214.605 59.6747 214.157 58.984C213.709 58.2933 213.485 57.5187 213.485 56.66C213.485 55.764 213.7 54.98 214.129 54.308C214.577 53.636 215.277 53.1133 216.229 52.74C217.181 52.348 218.423 52.152 219.953 52.152H223.957V54.7H220.429C219.403 54.7 218.693 54.868 218.301 55.204C217.928 55.54 217.741 55.96 217.741 56.464C217.741 57.024 217.956 57.472 218.385 57.808C218.833 58.1253 219.44 58.284 220.205 58.284C220.933 58.284 221.587 58.116 222.165 57.78C222.744 57.4253 223.164 56.912 223.425 56.24L224.097 58.256C223.78 59.2267 223.201 59.964 222.361 60.468C221.521 60.972 220.439 61.224 219.113 61.224Z" fill="black"/>
<path d="M140.012 108V85.6H146.22L155.18 100.224H151.916L160.62 85.6H166.828L166.892 108H160.012L159.948 95.968H161.036L155.083 105.984H151.756L145.548 95.968H146.892V108H140.012ZM177.455 93.92H187.439V99.36H177.455V93.92ZM177.967 102.304H189.167V108H170.543V85.6H188.751V91.296H177.967V102.304ZM192.074 108V85.6H203.114C205.61 85.6 207.807 86.0587 209.706 86.976C211.605 87.872 213.087 89.152 214.154 90.816C215.221 92.48 215.754 94.464 215.754 96.768C215.754 99.0933 215.221 101.099 214.154 102.784C213.087 104.448 211.605 105.739 209.706 106.656C207.807 107.552 205.61 108 203.114 108H192.074ZM199.626 102.112H202.794C203.861 102.112 204.789 101.909 205.578 101.504C206.389 101.099 207.018 100.501 207.466 99.712C207.914 98.9013 208.138 97.92 208.138 96.768C208.138 95.6373 207.914 94.6773 207.466 93.888C207.018 93.0987 206.389 92.5013 205.578 92.096C204.789 91.6907 203.861 91.488 202.794 91.488H199.626V102.112ZM229.232 108.512C225.797 108.512 223.12 107.584 221.2 105.728C219.28 103.872 218.32 101.269 218.32 97.92V85.6H225.872V97.696C225.872 99.4027 226.181 100.619 226.8 101.344C227.418 102.048 228.25 102.4 229.296 102.4C230.362 102.4 231.194 102.048 231.792 101.344C232.41 100.619 232.72 99.4027 232.72 97.696V85.6H240.144V97.92C240.144 101.269 239.184 103.872 237.264 105.728C235.344 107.584 232.666 108.512 229.232 108.512ZM243.605 108V85.6H251.157V108H243.605ZM254.793 108V85.6H261.001L272.393 99.232H269.513V85.6H276.873V108H270.665L259.273 94.368H262.153V108H254.793ZM292.256 108.512C290.442 108.512 288.757 108.224 287.2 107.648C285.664 107.072 284.33 106.261 283.2 105.216C282.069 104.149 281.184 102.901 280.544 101.472C279.925 100.043 279.616 98.4853 279.616 96.8C279.616 95.0933 279.925 93.536 280.544 92.128C281.184 90.6987 282.069 89.4613 283.2 88.416C284.33 87.3493 285.664 86.528 287.2 85.952C288.757 85.376 290.442 85.088 292.256 85.088C294.09 85.088 295.776 85.376 297.312 85.952C298.848 86.528 300.181 87.3493 301.312 88.416C302.442 89.4613 303.317 90.6987 303.936 92.128C304.576 93.536 304.896 95.0933 304.896 96.8C304.896 98.4853 304.576 100.043 303.936 101.472C303.317 102.901 302.442 104.149 301.312 105.216C300.181 106.261 298.848 107.072 297.312 107.648C295.776 108.224 294.09 108.512 292.256 108.512ZM292.256 102.4C292.96 102.4 293.61 102.272 294.208 102.016C294.826 101.76 295.36 101.397 295.808 100.928C296.277 100.437 296.64 99.8507 296.896 99.168C297.152 98.464 297.28 97.6747 297.28 96.8C297.28 95.9253 297.152 95.1467 296.896 94.464C296.64 93.76 296.277 93.1733 295.808 92.704C295.36 92.2133 294.826 91.84 294.208 91.584C293.61 91.328 292.96 91.2 292.256 91.2C291.552 91.2 290.89 91.328 290.272 91.584C289.674 91.84 289.141 92.2133 288.672 92.704C288.224 93.1733 287.872 93.76 287.616 94.464C287.36 95.1467 287.232 95.9253 287.232 96.8C287.232 97.6747 287.36 98.464 287.616 99.168C287.872 99.8507 288.224 100.437 288.672 100.928C289.141 101.397 289.674 101.76 290.272 102.016C290.89 102.272 291.552 102.4 292.256 102.4Z" fill="black"/>
<defs>
<filter id="filter0_d_106_46" x="0" y="0" width="339" height="202.303" filterUnits="userSpaceOnUse" color-interpolation-filters="sRGB">
<feFlood flood-opacity="0" result="BackgroundImageFix"/>
<feColorMatrix in="SourceAlpha" type="matrix" values="0 0 0 0 0 0 0 0 0 0 0 0 0 0 0 0 0 0 127 0" result="hardAlpha"/>
<feOffset dy="4"/>
<feGaussianBlur stdDeviation="2"/>
<feComposite in2="hardAlpha" operator="out"/>
<feColorMatrix type="matrix" values="0 0 0 0 0 0 0 0 0 0 0 0 0 0 0 0 0 0 0.25 0"/>
<feBlend mode="normal" in2="BackgroundImageFix" result="effect1_dropShadow_106_46"/>
<feBlend mode="normal" in="SourceGraphic" in2="effect1_dropShadow_106_46" result="shape"/>
</filter>
</defs>
</svg>
