<svg width="63" height="62" viewBox="0 0 63 62" fill="none" xmlns="http://www.w3.org/2000/svg">
<path d="M31.5 27.0553C38.052 20.5725 54.4359 31.9146 31.5 46.5001C8.56402 31.9146 24.948 20.5725 31.5 27.0553Z" fill="white"/>
<path d="M34.2839 5.81253C33.5455 5.08608 32.5442 4.67798 31.5001 4.67798C30.456 4.67798 29.4547 5.08608 28.7163 5.81253L2.54374 31.5658C2.17459 31.9296 1.9674 32.4228 1.96777 32.937C1.96814 33.4511 2.17603 33.944 2.54571 34.3073C2.91539 34.6706 3.41658 34.8745 3.93901 34.8742C4.46145 34.8738 4.96234 34.6692 5.33149 34.3054L7.87512 31.8022V52.3125C7.87512 53.8541 8.49738 55.3325 9.60502 56.4226C10.7127 57.5126 12.2149 58.125 13.7814 58.125H49.2189C50.7853 58.125 52.2876 57.5126 53.3952 56.4226C54.5029 55.3325 55.1251 53.8541 55.1251 52.3125V31.8022L57.6687 34.3054C58.0379 34.6692 58.5388 34.8738 59.0612 34.8742C59.5837 34.8745 60.0849 34.6706 60.4545 34.3073C60.8242 33.944 61.0321 33.4511 61.0325 32.937C61.0328 32.4228 60.8257 31.9296 60.4565 31.5658L51.1876 22.4479V9.68753C51.1876 9.17367 50.9802 8.68086 50.611 8.31751C50.2418 7.95416 49.741 7.75003 49.2189 7.75003H45.2814C44.7592 7.75003 44.2585 7.95416 43.8893 8.31751C43.52 8.68086 43.3126 9.17367 43.3126 9.68753V14.6979L34.2839 5.81253ZM51.1876 27.9272V52.3125C51.1876 52.8264 50.9802 53.3192 50.611 53.6825C50.2418 54.0459 49.741 54.25 49.2189 54.25H13.7814C13.2592 54.25 12.7585 54.0459 12.3893 53.6825C12.02 53.3192 11.8126 52.8264 11.8126 52.3125V27.9272L31.5001 8.55215L51.1876 27.9272Z" fill="white"/>
</svg>
